<svg xmlns="http://www.w3.org/2000/svg" width="28.28" height="26.191" viewBox="0 0 28.28 26.191">
  <g id="credit-card_1_" data-name="credit-card (1)" transform="translate(0 -18.904)">
    <g id="Group_5468" data-name="Group 5468" transform="translate(0 30.37)">
      <g id="Group_5467" data-name="Group 5467" transform="translate(0 0)">
        <path id="Path_1631" data-name="Path 1631" d="M27.819,227.736a2.76,2.76,0,0,0-3.861-.756l-4.669,3.193a2.4,2.4,0,0,0-2.008-1.09H14.322a5.146,5.146,0,0,0-3.738-1.254c-2.7,0-3.855,1.141-4.089,1.409l-.938.959-.5-.965L0,231.872l4.882,9.351,5.053-2.638-.523-1H18.6l8.518-6.077A2.75,2.75,0,0,0,27.819,227.736ZM5.585,238.982,2.24,232.575l2.11-1.1L7.7,237.881Zm20.569-8.828-8.086,5.768H8.545l-2.18-4.176L7.7,230.38l.018-.012.031-.043a3.868,3.868,0,0,1,2.833-.835c1.917,0,2.586.775,2.667.878l.209.376h3.82a.737.737,0,0,1,0,1.474H12.294v1.66h4.987a2.4,2.4,0,0,0,2.351-1.928l5.263-3.6a1.1,1.1,0,0,1,1.26,1.8Z" transform="translate(0 -226.497)" fill="#728691"/>
      </g>
    </g>
    <g id="Group_5470" data-name="Group 5470" transform="translate(6.941 18.904)">
      <g id="Group_5469" data-name="Group 5469">
        <path id="Path_1632" data-name="Path 1632" d="M139.572,18.9h-11.9a2.016,2.016,0,0,0-2.014,2.014V27.98a2.016,2.016,0,0,0,2.014,2.014h11.9a2.016,2.016,0,0,0,2.014-2.014V20.918A2.016,2.016,0,0,0,139.572,18.9Zm.353,9.076a.354.354,0,0,1-.353.354h-11.9a.354.354,0,0,1-.354-.354V24.039h12.609Zm0-5.6H127.317v-1.46a.354.354,0,0,1,.354-.354h11.9a.354.354,0,0,1,.353.354v1.46Z" transform="translate(-125.657 -18.904)" fill="#728691"/>
      </g>
    </g>
    <g id="Group_5472" data-name="Group 5472" transform="translate(9.597 25.671)">
      <g id="Group_5471" data-name="Group 5471">
        <rect id="Rectangle_1384" data-name="Rectangle 1384" width="2.601" height="1.66" fill="#728691"/>
      </g>
    </g>
  </g>
</svg>
