<svg xmlns="http://www.w3.org/2000/svg" width="25.971" height="20.511" viewBox="0 0 25.971 20.511">
  <g id="cloud-computing_1_" data-name="cloud-computing (1)" transform="translate(0.256 -54.763)">
    <g id="Group_5466" data-name="Group 5466" transform="translate(0 55.032)">
      <g id="Group_5465" data-name="Group 5465" transform="translate(0 0)">
        <path id="Path_1629" data-name="Path 1629" d="M21.217,61.656A8.753,8.753,0,0,0,4,63.152a4.774,4.774,0,0,0,.8,9.485H8.772V71.045H4.794a3.183,3.183,0,0,1,0-6.366.8.8,0,0,0,.8-.8,7.161,7.161,0,0,1,14.187-1.392.8.8,0,0,0,.676.637,3.979,3.979,0,0,1-.541,7.917H16.729v1.591h3.183a5.57,5.57,0,0,0,1.3-10.981Z" transform="translate(0 -55.032)" fill="#728691" stroke="#728691" stroke-width="0.5"/>
        <path id="Path_1630" data-name="Path 1630" d="M184.218,249.242l-3.183,3.183,1.122,1.122,1.83-1.822v7.631h1.591v-7.631l1.822,1.822,1.122-1.122-3.183-3.183A.8.8,0,0,0,184.218,249.242Z" transform="translate(-172.032 -239.364)" fill="#728691" stroke="#728691" stroke-width="0.5"/>
      </g>
    </g>
  </g>
</svg>
