<svg xmlns="http://www.w3.org/2000/svg" width="24" height="21.917" viewBox="0 0 24 21.917">
  <g id="credit-card" transform="translate(0 -2)">
    <path id="Path_1633" data-name="Path 1633" d="M17.25,23H2.75A2.752,2.752,0,0,1,0,20.25v-8.5A2.752,2.752,0,0,1,2.75,9h14.5A2.752,2.752,0,0,1,20,11.75v8.5A2.752,2.752,0,0,1,17.25,23ZM2.75,10.5A1.252,1.252,0,0,0,1.5,11.75v8.5A1.252,1.252,0,0,0,2.75,21.5h14.5a1.252,1.252,0,0,0,1.25-1.25v-8.5a1.252,1.252,0,0,0-1.25-1.25Z" transform="translate(0 0.917)" fill="#728691"/>
    <path id="Path_1634" data-name="Path 1634" d="M6.25,17H4.75A1.752,1.752,0,0,1,3,15.25v-1.5A1.752,1.752,0,0,1,4.75,12h1.5A1.752,1.752,0,0,1,8,13.75v1.5A1.752,1.752,0,0,1,6.25,17Zm-1.5-3.5a.25.25,0,0,0-.25.25v1.5a.25.25,0,0,0,.25.25h1.5a.25.25,0,0,0,.25-.25v-1.5a.25.25,0,0,0-.25-.25Z" transform="translate(0 0.593)" fill="#728691"/>
    <path id="Path_1635" data-name="Path 1635" d="M16.25,20H3.75a.75.75,0,0,1,0-1.5h12.5a.75.75,0,0,1,0,1.5Z" transform="translate(0 0.917)" fill="#728691"/>
    <path id="Path_1636" data-name="Path 1636" d="M22.75,6.5H5.25a.75.75,0,0,1,0-1.5h17.5a.75.75,0,0,1,0,1.5Z" transform="translate(0 1.179)" fill="#728691"/>
    <path id="Path_1637" data-name="Path 1637" d="M22.25,14.72a.75.75,0,0,1-.371-1.4,1.214,1.214,0,0,0,.62-1.068V3.75a1.252,1.252,0,0,0-1.25-1.25H6.75A1.252,1.252,0,0,0,5.5,3.75v3a.75.75,0,0,1-1.5,0v-3A2.752,2.752,0,0,1,6.75,1h14.5A2.752,2.752,0,0,1,24,3.75v8.5a2.732,2.732,0,0,1-1.38,2.373A.75.75,0,0,1,22.25,14.72Z" transform="translate(0 1)" fill="#728691"/>
  </g>
</svg>
