<svg xmlns="http://www.w3.org/2000/svg" width="21.984" height="25.124" viewBox="0 0 21.984 25.124">
  <g id="password" transform="translate(-32)">
    <g id="Group_6055" data-name="Group 6055" transform="translate(32)">
      <g id="Group_6054" data-name="Group 6054" transform="translate(0)">
        <circle id="Ellipse_69" data-name="Ellipse 69" cx="1.023" cy="1.023" r="1.023" transform="translate(15.595 16.142)" fill="#728691"/>
        <path id="Path_1641" data-name="Path 1641" d="M53,17.764a.981.981,0,0,0,.981-.981V13.151a3.93,3.93,0,0,0-3.926-3.926h-1.18V5.764a5.89,5.89,0,0,0-11.777,0V9.225H35.926A3.93,3.93,0,0,0,32,13.151V21.2a3.93,3.93,0,0,0,3.926,3.926H50.058A3.93,3.93,0,0,0,53.984,21.2a.981.981,0,1,0-1.963,0,1.965,1.965,0,0,1-1.963,1.963H35.926A1.965,1.965,0,0,1,33.963,21.2V13.151a1.965,1.965,0,0,1,1.963-1.963H50.058a1.965,1.965,0,0,1,1.963,1.963v3.631A.981.981,0,0,0,53,17.764ZM46.916,9.225H39.064V5.764a3.928,3.928,0,0,1,7.851,0Z" transform="translate(-32)" fill="#728691"/>
        <circle id="Ellipse_70" data-name="Ellipse 70" cx="1.023" cy="1.023" r="1.023" transform="translate(7.923 16.142)" fill="#728691"/>
        <circle id="Ellipse_71" data-name="Ellipse 71" cx="1.023" cy="1.023" r="1.023" transform="translate(4.343 16.142)" fill="#728691"/>
        <circle id="Ellipse_72" data-name="Ellipse 72" cx="1.023" cy="1.023" r="1.023" transform="translate(12.015 16.142)" fill="#728691"/>
      </g>
    </g>
  </g>
</svg>
